<svg xmlns="http://www.w3.org/2000/svg" data-name="Layer 1" viewBox="0 0 24 30" x="0px" y="0px" transform="matrix(1, 0, 0, 1, 0, 0)"><path d="M6,22.5H18A2.50294,2.50294,0,0,0,20.5,20V7.82861a2.48418,2.48418,0,0,0-.73242-1.76806L15.93945,2.23242A2.48418,2.48418,0,0,0,14.17139,1.5H6A2.50294,2.50294,0,0,0,3.5,4V20A2.50294,2.50294,0,0,0,6,22.5ZM14.5,2.539a1.49048,1.49048,0,0,1,.73242.40045l3.82813,3.82813A1.49048,1.49048,0,0,1,19.461,7.5H16A1.50164,1.50164,0,0,1,14.5,6ZM4.5,4A1.50164,1.50164,0,0,1,6,2.5h7.5V6A2.50294,2.50294,0,0,0,16,8.5h3.5V20A1.50164,1.50164,0,0,1,18,21.5H6A1.50164,1.50164,0,0,1,4.5,20Z" fill="#b7b5be"/><text x="0" y="39" fill="#b7b5be" font-size="5px" font-weight="bold" font-family="'Helvetica Neue', Helvetica, Arial-Unicode, Arial, Sans-serif">Created by Royyan Wijaya</text><text x="0" y="44" fill="#b7b5be" font-size="5px" font-weight="bold" font-family="'Helvetica Neue', Helvetica, Arial-Unicode, Arial, Sans-serif">from the Noun Project</text></svg>