<?xml version="1.0" standalone="no"?>
<!DOCTYPE svg PUBLIC "-//W3C//DTD SVG 20010904//EN"
 "http://www.w3.org/TR/2001/REC-SVG-20010904/DTD/svg10.dtd">
<svg version="1.0" xmlns="http://www.w3.org/2000/svg"
 width="299.000000pt" height="299.000000pt" viewBox="0 0 299.000000 299.000000"
 preserveAspectRatio="xMidYMid meet">
<metadata>
Created by potrace 1.14, written by Peter Selinger 2001-2017
</metadata>
<g transform="translate(0.000000,299.000000) scale(0.100000,-0.100000)"
fill="#000000" stroke="none">
<path d="M1257 2833 c-2 -1 -21 -5 -43 -8 -21 -3 -53 -9 -71 -14 -17 -5 -90
-9 -162 -9 l-131 -1 -97 -42 c-160 -70 -230 -120 -283 -204 -42 -67 -52 -97
-51 -162 1 -68 -8 -99 -67 -223 -94 -199 -95 -202 -88 -329 8 -142 2 -179 -30
-187 -23 -6 -22 -8 21 -35 25 -16 89 -45 143 -65 53 -20 102 -40 108 -45 6 -5
14 -6 17 -2 4 3 7 2 7 -4 0 -13 -28 -25 -41 -17 -15 9 -49 -6 -49 -22 0 -22
-13 -17 -45 16 -22 23 -103 60 -131 60 -1 0 -4 -10 -6 -22 -5 -39 -49 -31 -69
12 -10 19 -15 38 -13 42 2 4 0 9 -6 13 -5 3 -11 -3 -11 -14 -1 -12 -2 -27 -3
-33 -5 -31 25 -67 62 -77 132 -35 263 -64 302 -67 38 -3 255 -61 270 -72 3 -2
-5 -11 -18 -20 -31 -24 -36 -65 -13 -116 17 -40 75 -96 98 -96 18 0 100 -79
128 -123 31 -48 94 -99 144 -116 36 -12 122 -15 158 -5 19 5 12 13 -55 58
l-77 51 130 5 c72 3 129 8 128 13 -2 4 -3 12 -3 18 0 5 -17 17 -37 26 -56 23
-81 57 -99 131 -4 15 -9 150 -11 300 -4 222 -2 272 9 272 13 0 49 -33 274
-249 357 -344 497 -476 526 -497 40 -30 58 -18 58 38 0 42 -13 73 -40 98 -10
8 -40 40 -67 70 -26 30 -51 55 -54 55 -5 0 -210 190 -295 273 -19 19 -32 38
-29 42 3 4 -1 7 -8 6 -13 -1 -187 155 -187 169 0 3 5 3 12 -1 7 -4 8 -3 4 5
-4 6 -12 8 -18 5 -13 -8 -149 126 -141 140 3 6 3 8 -1 4 -11 -9 -50 28 -42 41
4 5 1 13 -5 17 -8 4 -9 3 -5 -4 4 -7 4 -12 -1 -12 -13 1 -168 152 -165 162 1
4 -1 7 -5 6 -5 -1 -20 4 -34 10 -28 11 -77 20 -151 28 -42 4 -48 2 -48 -14 0
-23 14 -41 70 -83 25 -18 50 -38 56 -44 7 -5 24 -19 40 -30 82 -59 124 -98
130 -120 3 -13 3 -173 0 -354 -5 -312 -6 -333 -27 -383 -12 -29 -24 -55 -26
-58 -8 -9 -74 35 -97 65 -22 29 -103 205 -159 344 l-21 55 -26 -57 c-38 -87
-81 -90 -55 -5 13 45 12 72 -4 149 -5 20 -8 145 -7 278 1 170 -2 237 -9 227
-11 -14 -32 -76 -96 -274 l-33 -102 17 -84 c23 -113 23 -118 -10 -114 -22 2
-29 10 -34 38 -12 60 -21 114 -23 135 -1 11 -5 26 -10 34 -6 9 -5 12 2 7 10
-6 29 38 61 135 19 59 22 81 22 152 -1 66 1 70 42 121 25 31 58 90 77 137 58
146 105 205 190 241 19 9 60 38 90 66 52 49 54 51 28 52 -15 0 -30 -5 -34 -11
-5 -8 -8 -8 -13 0 -5 8 -16 8 -42 -1 -39 -13 -110 -56 -121 -72 -4 -6 -8 -8
-8 -3 0 10 -54 -18 -88 -46 -82 -67 -109 -105 -125 -179 -28 -128 -36 -172
-30 -182 3 -5 2 -6 -4 -3 -9 6 -72 -103 -76 -133 -1 -9 -13 -33 -26 -54 -25
-39 -27 -66 -21 -231 2 -65 -5 -133 -15 -144 -3 -2 -15 1 -28 6 -21 10 -23 16
-20 64 7 89 7 111 -1 180 -8 75 -6 83 92 294 37 82 64 156 72 200 16 91 49
165 97 214 21 21 46 50 56 65 24 35 67 56 130 62 28 3 66 7 82 9 17 3 81 7
143 10 62 3 141 12 175 20 161 37 339 49 445 31 l37 -7 -30 16 c-37 20 -207
71 -266 80 -51 7 -158 13 -162 8z m-654 -1342 c11 -1 17 -9 17 -25 0 -47 -53
-74 -80 -41 -17 21 5 74 28 70 9 -2 25 -4 35 -4z"/>
<path d="M619 2761 c-54 -21 -139 -77 -139 -92 0 -6 -4 -8 -9 -5 -13 8 -113
-93 -159 -162 -81 -118 -147 -284 -176 -440 -16 -82 -22 -337 -8 -328 5 3 6
-20 4 -51 -5 -54 -4 -55 19 -48 31 10 28 5 44 71 8 37 10 66 4 81 -10 26 -16
58 -25 118 -6 41 4 65 152 370 18 39 36 86 39 105 20 126 101 259 191 312 30
18 54 36 54 40 0 5 4 8 10 8 5 0 24 9 42 20 41 25 19 25 -43 1z"/>
<path d="M1510 2559 c-13 -47 -7 -111 16 -165 17 -41 71 -99 102 -108 13 -4
22 -19 26 -41 8 -41 37 -64 71 -57 29 5 41 18 50 53 6 22 1 31 -28 53 -18 14
-39 26 -45 26 -18 0 -15 14 8 40 11 13 20 26 20 30 0 17 -50 50 -99 67 -63 21
-93 55 -94 107 -2 48 -14 46 -27 -5z"/>
<path d="M1760 2504 c-30 -8 -59 -19 -63 -23 -5 -5 6 -20 23 -34 29 -25 38
-27 124 -26 68 0 108 -5 150 -20 231 -81 402 -272 504 -563 64 -181 86 -371
67 -574 -7 -73 3 -103 43 -127 l30 -17 6 47 c4 27 9 66 12 88 18 127 7 378
-21 475 -2 8 -6 26 -9 40 -5 30 -42 139 -68 199 -61 142 -191 314 -303 399
-148 113 -361 171 -495 136z"/>
<path d="M1854 2119 c-6 -11 33 -59 49 -59 13 0 97 -71 93 -79 -2 -3 0 -26 4
-51 12 -61 23 -175 22 -230 0 -25 -1 -103 -1 -173 -1 -73 -5 -127 -10 -125
-12 4 -253 232 -480 454 -203 198 -221 214 -278 243 -46 23 -137 29 -149 9 -4
-7 -3 -8 4 -4 13 8 35 -28 24 -39 -4 -5 -2 -5 4 -2 6 4 73 -54 151 -131 127
-124 323 -312 537 -512 44 -41 101 -95 127 -120 122 -118 171 -161 177 -156 3
3 7 167 8 364 4 498 2 483 94 543 38 24 50 38 48 53 -3 20 -10 21 -210 23
-130 1 -210 -2 -214 -8z"/>
<path d="M264 1276 c2 -39 10 -84 17 -101 24 -51 70 -125 80 -125 4 0 7 63 5
141 -4 156 -5 158 -68 157 l-38 0 4 -72z"/>
<path d="M439 1308 c0 -7 -3 -35 -5 -63 -3 -27 -6 -104 -7 -170 -2 -115 -1
-122 24 -160 15 -22 37 -50 49 -63 33 -35 99 -74 113 -66 7 4 9 4 5 -1 -4 -4
0 -21 10 -37 13 -22 23 -28 40 -25 16 3 22 -1 22 -13 0 -26 25 -42 150 -97
208 -92 335 -119 347 -73 6 22 19 26 25 8 3 -9 26 -12 74 -10 55 2 87 -3 154
-26 63 -21 107 -30 167 -31 45 -1 93 -4 105 -6 63 -12 85 -19 111 -32 24 -12
28 -12 33 2 6 14 9 13 26 -4 17 -19 26 -20 121 -15 90 6 122 14 272 66 94 33
204 71 245 85 103 35 163 67 192 101 32 38 104 233 112 300 8 70 -6 60 -48
-32 -64 -139 -76 -161 -103 -192 -36 -40 -66 -55 -183 -88 -52 -15 -123 -43
-158 -62 -151 -82 -246 -98 -487 -80 -130 9 -163 17 -298 72 -129 52 -174 57
-297 28 -14 -3 -61 -5 -104 -5 l-80 1 -75 74 c-85 82 -102 92 -218 130 -102
34 -121 49 -179 142 -59 95 -74 140 -81 239 -3 44 -10 88 -15 98 -10 19 -58
23 -59 5z"/>
<path d="M604 1286 c-22 -31 -18 -144 7 -211 29 -79 105 -159 172 -181 97 -32
143 -62 212 -138 90 -100 110 -106 260 -77 68 14 249 6 308 -13 27 -9 52 -15
55 -14 4 1 21 -6 39 -15 18 -9 42 -19 55 -21 13 -3 23 -5 23 -6 0 -1 20 -3 44
-5 49 -5 45 12 -4 19 -47 6 -131 39 -246 95 -120 58 -123 59 -309 65 -196 7
-244 33 -304 169 -26 56 -43 76 -93 101 -44 22 -100 82 -113 120 -5 18 -12 51
-14 74 -4 51 -6 53 -46 56 -22 2 -36 -4 -46 -18z"/>
<path d="M790 551 c0 -6 12 -18 28 -28 15 -10 29 -20 32 -24 3 -3 36 -27 75
-52 l69 -47 14 23 c7 12 11 15 9 7 -2 -8 2 -27 9 -41 16 -31 61 -44 102 -28
15 6 54 13 86 15 33 3 61 6 62 7 1 1 4 21 7 44 4 42 4 43 -22 36 -14 -3 -34
-10 -43 -15 -10 -5 -48 -5 -85 -1 -38 4 -79 7 -93 7 -14 0 -28 5 -33 12 -4 7
-37 22 -75 33 -37 12 -84 31 -104 42 -21 11 -38 16 -38 10z"/>
<path d="M2563 532 c-12 -2 -26 -9 -31 -15 -9 -11 -16 -55 -13 -82 1 -10 101
85 101 97 0 7 -12 7 -57 0z"/>
<path d="M2380 465 c-107 -36 -214 -87 -247 -118 -17 -15 -23 -17 -23 -6 0 12
-2 11 -10 -1 -6 -10 -10 -11 -10 -3 0 15 -61 9 -97 -9 -17 -8 -26 -8 -37 1
-20 16 -208 79 -223 74 -8 -3 -13 -22 -13 -49 0 -48 9 -56 81 -68 19 -3 59
-13 89 -21 63 -17 73 -18 66 -7 -2 4 -1 14 5 22 7 12 9 10 9 -7 0 -16 6 -24
20 -25 60 -5 80 -4 80 4 0 4 5 8 11 8 5 0 7 -5 3 -12 -4 -7 -3 -8 5 -4 8 6 9
11 2 20 -8 9 -5 19 9 36 11 13 20 18 20 12 0 -6 -4 -13 -9 -17 -9 -5 -7 -42 1
-51 8 -8 84 17 94 30 6 9 21 16 32 16 12 0 64 13 115 30 95 30 137 59 137 96
0 10 4 25 9 33 11 16 5 38 -12 44 -7 2 -55 -10 -107 -28z"/>
<path d="M1322 472 c-6 -2 -12 -11 -12 -21 0 -9 -6 -23 -12 -30 -10 -11 -10
-13 -1 -7 9 5 12 0 10 -14 -2 -18 11 -27 82 -57 62 -26 92 -33 115 -28 35 7
37 7 124 -1 53 -5 62 -3 62 11 0 9 4 14 9 11 8 -6 6 44 -5 76 -7 22 -38 32
-61 20 -31 -17 -148 -3 -253 30 -25 8 -51 13 -58 10z"/>
<path d="M1283 293 c-25 -10 -12 -30 26 -41 50 -15 58 -15 64 3 10 23 -57 52
-90 38z"/>
<path d="M1390 251 c0 -18 43 -39 85 -43 22 -2 42 -6 46 -10 7 -11 100 -27
116 -21 13 5 36 73 28 81 -3 3 -37 0 -75 -7 -39 -6 -74 -10 -78 -7 -18 10
-122 16 -122 7z"/>
<path d="M1688 225 c-4 -65 -13 -60 110 -60 61 -1 112 2 112 7 0 8 -65 28 -92
28 -9 0 -34 11 -54 25 -20 14 -45 25 -55 25 -13 0 -20 -8 -21 -25z"/>
</g>
</svg>
